<?xml version="1.0" encoding="utf-8"?>
<!-- Generator: Adobe Illustrator 16.0.0, SVG Export Plug-In . SVG Version: 6.00 Build 0)  -->
<!DOCTYPE svg PUBLIC "-//W3C//DTD SVG 1.1//EN" "http://www.w3.org/Graphics/SVG/1.1/DTD/svg11.dtd">
<svg version="1.1" id="圖層_1" xmlns="http://www.w3.org/2000/svg" xmlns:xlink="http://www.w3.org/1999/xlink" x="0px" y="0px"
	 width="500px" height="500px" viewBox="0 0 500 500" enable-background="new 0 0 500 500" xml:space="preserve">
<g>
	<path fill="#036EB8" d="M0.007,248.629c0.388-3.119,1.037-6.235,1.128-9.357C2.848,185.313,20.123,136.977,54.01,94.905
		c37.223-46.23,83.918-77.737,142.723-89.811c26.849-5.509,53.918-6.201,81.13-3.739c44.992,4.072,85.653,19.534,121.437,47.081
		c48.316,37.195,81.363,84.601,94.785,144.721c6.116,27.415,7.092,55.139,4.737,83.05c-4.069,48.269-21.34,91.291-51.71,128.92
		c-38.921,48.216-87.87,80.819-149.539,91.266c-73.911,12.51-142.146-1.286-201.51-49.067
		c-48.374-38.944-80.408-88.247-91.308-150.066c-2.158-12.258-2.471-24.839-3.67-37.26c-0.239-2.462-0.712-4.908-1.085-7.356
		C0.007,251.298,0.007,249.969,0.007,248.629z M251.34,491.51c129.385,2.54,240.283-106.725,240.266-240.114
		C491.602,117.641,382.002,10.567,252.029,10.179C121.575,9.793,11.348,117.836,11.302,251.29
		C11.266,383.987,121.265,494.197,251.34,491.51z"/>
	<path fill="#036EB8" d="M251.025,87.467c88.942-2.453,163.311,74.794,162.95,163.597c-0.353,88.04-73.482,163.272-164.396,162.698
		c-92.953-0.582-163.01-76.555-162.84-164.03C86.89,163.267,159.574,84.814,251.025,87.467z M250.5,407.881
		c87.357,0.115,155.873-69.2,156.742-157.068c0.847-83.881-68.556-157.382-155.25-157.792
		c-87.441-0.417-157.868,71.518-157.777,157.428C94.325,338.074,163.035,407.766,250.5,407.881z"/>
	<path fill="#036EB8" d="M271.797,444.947c0.031-0.49-0.056-2.366,0.331-4.134c1.886-8.494,5.214-15.99,14.711-18.299
		c7.649-1.854,17.788,2.605,22.593,10.651c5.828,9.792,7.921,20.466,3.892,31.545c-4.438,12.205-17.958,16.281-28.554,8.876
		C276.513,467.817,271.855,457.995,271.797,444.947z M278.705,436.309c0.258,3.539,0.258,5.726,0.582,7.861
		c1.478,9.56,2.811,19.226,9.402,26.967c2.755,3.237,5.879,5.953,10.785,4.626c5.127-1.389,8.153-4.706,8.579-9.853
		c1.109-13.72-2.144-26.385-10.098-37.727c-0.379-0.535-0.9-0.98-1.392-1.429c-5.267-4.779-12.203-3.905-15.62,2.337
		C279.539,431.612,279.175,434.715,278.705,436.309z"/>
	<path fill="#036EB8" d="M76.039,226.805c-2.834-1.459-5.499-3.463-8.482-4.24c-10.635-2.75-21.348-5.225-32.097-7.47
		c-2.415-0.505-5.119,0.369-7.84,0.619c2.112-7.63,3.988-16.243,6.924-24.471c4.297-12.071,14.267-17.448,26.379-15.145
		c13.128,2.501,20.313,11.235,20.119,24.506c-0.024,1.992-0.024,4.039-0.433,5.976C79.113,213.581,77.461,220.542,76.039,226.805z
		 M79.131,204.077c-0.099-12.204-11.288-21.825-25.24-21.71c-11.874,0.104-21.494,10.479-21.331,22.655
		c0.042,3.28,1.981,3.825,4.29,4.383c9.218,2.19,18.44,4.411,27.677,6.543c12.359,2.843,13.593,1.89,14.534-10.876
		C79.1,204.739,79.11,204.412,79.131,204.077z"/>
	<path fill="#036EB8" d="M406.707,122.641c-1.104-0.296-2.633-1.203-3.271-0.789c-6.236,4.109-13.236,7.414-16.932,14.837
		c-1.883-2.425-3.882-5.024-5.539-7.159c14.116-8.414,26.641-18.632,39.61-29.509c3.753,5.382,8.42,11.392,12.311,17.866
		c3.156,5.254,2.033,11.178-1.738,14.711c-3.742,3.518-9.345,3.791-14.858,0.738c-0.876-0.487-1.718-1.005-2.619-1.455
		c-0.272-0.13-0.639-0.068-1.784-0.174c-2.242,9.859-7.279,19.186-6.082,29.691c-5.727-4.919-6.03-5.93-3.87-13.477
		c1.65-5.761,3.528-11.481,4.822-17.329c0.557-2.581-0.102-5.427-0.205-8.156c1.912,1.82,3.657,3.924,5.814,5.4
		c5.958,4.076,12.866,2.521,16.416-3.43c3.015-5.07,0.484-13.781-5.025-16.559c-0.881-0.44-2.608-0.098-3.479,0.533
		c-4.326,3.111-8.634,6.304-12.646,9.807C406.725,118.993,406.989,121.127,406.707,122.641z"/>
	<path fill="#036EB8" d="M180.404,469.031c13.139,1.199,26.683-4.285,31.714-13.66c-2.662-0.219-5.024-0.475-7.386-0.614
		c-7.582-0.441-13.585-3.544-16.748-10.678c-2.918-6.557-0.748-12.649,3.465-17.701c4.83-5.797,11.485-7.008,18.698-5.175
		c14.274,3.606,20.877,17.619,14.578,30.915c-6.11,12.904-23.517,21.133-38.518,18.191
		C184.257,469.919,182.335,469.446,180.404,469.031z M221.723,437.077c-0.94-9.779-7.932-16.388-16.188-14.298
		c-7.368,1.862-9.5,8.276-11.023,14.696c-1.318,5.545,1.153,12,5.926,14.16c3.482,1.584,7.586,2.002,11.463,2.479
		c1.129,0.134,3.079-1.036,3.575-2.114C217.762,447.12,219.679,442.063,221.723,437.077z"/>
	<path fill="#036EB8" d="M91.194,105.456c8.802,9.248,17.602,18.493,26.591,27.939c-0.096,0.074-1.284,1.11-1.953,1.687
		c-9.413-10.312-18.409-20.512-27.885-30.264c-1.727-1.786-5.316-1.77-8.246-2.649c2.15-2.999,4.762-5.165,9.236-4.557
		c12.183,1.659,24.412,3.12,36.614,4.611c2.709,0.328,5.46,0.428,8.512-0.007c-8.422-9.117-15.119-19.661-26.051-26.542
		c0.892-0.827,2.281-2.103,2.922-2.714c10.96,12.056,21.716,23.917,33.454,36.849c-18.236-2.117-35.27-4.091-52.3-6.072
		C91.797,104.304,91.501,104.883,91.194,105.456z"/>
	<path fill="#036EB8" d="M230.505,75.917c-1.457,0-4.256,0-6.618,0c0.589-2.209,1.703-4.395,1.665-6.561
		c-0.229-10.494-0.881-20.974-1.16-31.472c-0.124-4.884-2.175-8.223-6.712-10.087c5.679-2.393,9.67-0.576,13.589,3.974
		c8.165,9.466,16.851,18.477,25.348,27.657c1.054,1.139,2.245,2.154,3.577,3.417c3.614-9.819-0.074-35.051-4.974-37.289
		c2.693,0,5.519,0,7.605,0c-0.27,3.61-0.834,7.153-0.738,10.671c0.285,11.829,0.791,23.658,1.201,35.484
		c0.021,0.62-0.135,1.249-0.319,2.82c-12.054-12.948-23.613-25.352-35.158-37.757c-0.497,0.205-0.967,0.409-1.449,0.619
		c0,5.375-0.11,10.76,0.028,16.134c0.124,4.998,0.162,10.043,0.931,14.96C227.737,71.236,229.535,73.771,230.505,75.917z"/>
	<path fill="#036EB8" d="M353.438,412.484c1.816-0.76,3.603-1.451,5.348-2.245c6.835-3.103,13.825-4.928,21.371-3.046
		c6.824,1.699,11.823,8.21,11.16,15.23c-1.015,10.678-6.313,18.788-15.574,24.265c-0.148,0.082-0.301,0.201-0.456,0.219
		c-2.086,0.213-4.162,0.492-6.255,0.527c-0.255,0.004-0.922-1.853-0.731-1.991c1.613-1.254,3.262-2.923,5.134-3.306
		c6.69-1.383,11.787-4.592,14.39-11.082c4.054-10.074-4.896-20.101-16.616-17.831c-6.543,1.263-12.715,4.4-19.624,6.906
		c-0.664-6.4-1.42-13.303-2.012-20.216c-0.076-0.824,0.605-1.986,1.286-2.543c5.04-4.056,10.17-8.012,15.586-12.247
		c1.765,3.741,1.147,6.096-1.842,8.12c-2.763,1.871-5.26,4.111-7.909,6.143C350.733,403.979,350.728,403.978,353.438,412.484z"/>
	<path fill="#036EB8" d="M411.695,168.701c2.669-0.899,5.456-1.855,9.525-3.221c-6.673,6.22-8.184,12.781-5.548,20.14
		c1.529,4.241,4.479,7.19,9.241,7.159c4.669-0.022,7.253-3.157,8.401-7.309c1.403-5.141,2.464-10.379,3.633-15.592
		c2.3-10.258,6.643-14.339,14.188-13.289c7.518,1.043,12.598,8.349,12.398,17.518c-0.066,2.45,0.482,4.917,0.807,7.995
		c-2.255,0.754-5.474,1.85-8.714,2.94c4.906-4.71,7.237-10.011,5.559-16.683c-1.143-4.645-5.045-8.37-8.897-8.265
		c-4.801,0.127-7.204,3.404-8.203,7.513c-1.455,5.974-2.352,12.077-3.575,18.116c-1.365,6.819-5.982,11.142-12.047,11.481
		c-5.486,0.299-11.876-4.154-13.56-9.978c-1.006-3.484-1.198-7.192-1.79-10.801C412.703,174.015,412.232,171.614,411.695,168.701z"
		/>
	<path fill="#036EB8" d="M26.404,281.22c0-5.891,0-10.559,0-14.539c2.086,0.741,4.322,2.207,6.55,2.188
		c9.825-0.085,19.663-0.253,29.46-1.044c8.379-0.676,12.151-5.527,12.154-14.149c0.008-9.242-4.663-15.924-12.61-16.322
		c-10.125-0.505-20.308-0.2-30.44,0.236c-2.174,0.097-4.254,2.292-5.986,3.301c0-2.777,0-6.651,0-10.556
		c0.984,4.613,4.632,5.36,8.379,5.344c6.663-0.035,13.33-0.577,19.985-0.625c3.473-0.023,7.019,0.251,10.418,0.909
		c8.33,1.609,12.337,8.823,11.908,20.884c-0.363,10.068-4.558,15.738-13.156,16.477c-8.958,0.777-17.962,0.727-26.947,1.195
		C32.146,274.731,27.871,274.774,26.404,281.22z"/>
	<path fill="#036EB8" d="M53.111,139.558c19.234,1.604,37.026,3.09,54.833,4.571c-1.196,2.227-2.937,5.504-4.947,9.286
		c-3.662-5.591-9.342-4.5-14.383-4.924c-1.251-0.099-3.077,1.741-3.931,3.129c-2.45,3.957-4.801,8.027-6.648,12.289
		c-0.688,1.583-0.574,4.354,0.398,5.649c2.683,3.534,4.178,8.667,10.527,8.709c-1.333,2.667-2.478,4.967-3.387,6.79
		c-1.703-3.131-3.103-6.591-5.257-9.484c-7.748-10.425-15.761-20.665-23.661-30.983C55.671,143.313,54.804,141.972,53.111,139.558z
		 M85.209,147.977c-8.471-0.783-15.829-1.459-23.193-2.136c-0.282,0.49-0.543,0.977-0.811,1.462
		c4.438,5.883,8.887,11.761,13.942,18.439C78.736,159.396,81.631,154.286,85.209,147.977z"/>
	<path fill="#036EB8" d="M156.052,46.045c2.415-0.894,5.503-2.053,8.45-3.154c2.33,12.318,7.061,23.588,12.399,34.572
		c3.659,7.551,9.687,9.197,18.194,5.983c7.77-2.933,12.472-10.096,10.247-17.133c-2.992-9.515-6.69-18.814-10.384-28.083
		c-0.772-1.948-2.831-3.377-4.375-5.144c1.735-0.657,3.871-1.464,5.418-2.046c0.958,3.929,1.681,7.842,2.901,11.597
		c2.327,7.115,5.183,14.074,7.393,21.229c2.824,9.119,0.053,15.793-8.436,19.923c-3.666,1.782-7.815,2.924-11.855,3.5
		c-7.107,0.999-12.401-2.137-15.194-8.775c-3.543-8.431-6.663-17.05-10.22-25.483C159.557,50.593,157.677,48.509,156.052,46.045z"/>
	<path fill="#036EB8" d="M323.402,81.218c2.305-1.385,3.385-1.795,4.155-2.535c7.391-7.019,14.753-14.062,22.027-21.165
		c2.319-2.262,4.476-4.739,0.965-8.8c4.052,1.674,7.188,2.973,9.67,4.001c-2.901,1.848-6.237,3.343-8.762,5.693
		c-9.3,8.628-18.327,17.549-27.477,26.334c-1.387,1.329-2.88,2.55-5.158,4.562c-0.324-3.04-0.698-4.945-0.716-6.854
		c-0.173-11.851-0.187-23.706-0.473-35.55c-0.104-4.241-0.764-8.461-1.203-12.968c3.822,1.608,8.024,3.371,11.451,4.82
		c-1.503,1.581-4.249,3.107-4.294,4.722C323.235,55.606,323.402,67.742,323.402,81.218z"/>
	<path fill="#036EB8" d="M368.584,85.349c-1.288,0.531-2.995,0.706-3.777,1.66c-3.511,4.242-6.724,8.714-10.094,13.066
		c-1.84,2.377-1.254,4.419,0.88,6.067c3.948,3.061,7.685,6.675,12.129,8.72c3.254,1.496,7.483,0.849,10.404,1.089
		c-5.912,4.776-5.912,4.773-12.671-0.376c-7.02-5.351-14.047-10.706-21.169-16.129c8.743-3.104,11.725-11.435,16.846-17.646
		c5.162-6.277,9.724-13.052,14.874-20.042c8.176,6.132,16.526,12.393,25.318,18.996c-1.104,1.784-2.105,3.393-2.524,4.073
		c-1.833-2.783-3.241-6.323-5.781-8.557c-12.073-10.599-12.255-10.526-21.716,2.257c-1.439,1.939-1.913,4.601-2.844,6.935
		L368.584,85.349z"/>
	<path fill="#036EB8" d="M472.686,279.393c-0.998,4.04-2.012,8.179-2.862,11.567c-2.076-0.677-4.268-2.249-5.873-1.776
		c-7.306,2.132-14.454,4.844-21.625,7.328c2.614,8.027,15.525,19.361,21.455,18.688c-0.738,3.016-1.438,5.844-1.893,7.72
		c-6.985-7.731-13.619-16.403-21.629-23.557c-5.818-5.202-13.916-5.969-21.909-4.994c0.911-3.625,1.884-7.488,2.826-11.281
		c0.498,1.029,0.745,2.651,1.609,3.103c6.199,3.257,12.843,6.504,19.831,4.382C452.72,287.502,462.47,283.258,472.686,279.393z"/>
	<path fill="#036EB8" d="M28.61,291.062c2.379-0.839,4.055-1.427,6.821-2.396c-6.341,8.473-1.089,15.593,0.659,22.898
		c0.167,0.678,2.532,1.448,3.652,1.193c4.696-1.098,9.413-2.334,13.9-4.062c1.22-0.467,2.682-3.188,2.306-4.322
		c-1.558-4.873-0.882-11.66-8.972-12.191c2.993-0.775,5.707-1.466,7.91-2.034c0.98,4.842,1.699,9.518,3.008,14.035
		c0.313,1.113,2.703,2.637,3.778,2.382c5.358-1.231,10.64-2.807,15.808-4.685c1.681-0.608,2.898-2.486,4.389-3.831
		c0.895,3.129,1.882,6.548,2.746,9.602c-2.831,0.281-5.454,0.188-7.882,0.832c-10.938,2.939-21.818,6.057-32.7,9.18
		c-3.215,0.924-6.06,2.328-5.764,6.643C35.097,313.419,31.942,302.538,28.61,291.062z"/>
	<path fill="#036EB8" d="M424.731,252.758c-0.208-4.224-0.413-8.348-0.543-11.039c1.916,0.882,4.347,2.968,6.797,2.957
		c12.157-0.038,24.331-0.657,36.501-0.979c3.271-0.093,4.314-1.558,4.063-4.744c-0.385-4.757,0.629-9.906-5.223-12.79
		c5.291-1.393,6.447,0.728,6.547,5.007c0.261,10.831,0.888,21.646,1.478,32.465c0.299,5.571-3.879,2.933-6.452,3.629
		c5.391-3.954,4.737-9.594,4.219-14.987c-0.108-1.094-2.351-2.849-3.59-2.829c-12.518,0.19-25.017,0.593-37.503,1.166
		C429.019,250.704,427.072,251.922,424.731,252.758z"/>
	<path fill="#036EB8" d="M146.861,394.233c2.464,0.653,5.609,1.5,9.553,2.564c-1.29,2.02-2.15,3.519-3.151,4.921
		c-7.484,10.414-15.053,20.758-22.456,31.23c-1.872,2.646-3.208,5.666-5.059,9.005c-2.404-1.654-5.204-3.593-8.077-5.582
		c7.756-4.738,11.387-12.749,16.291-19.583C138.81,410.021,145.43,404.001,146.861,394.233z"/>
	<path fill="#036EB8" d="M423.677,218.93c-0.47-3.499-0.933-6.902-1.222-9.014c3.605,0,7.187,0.314,10.689-0.063
		c10.736-1.153,21.432-2.591,32.152-3.872c3.601-0.432,5.387-2.322,5.436-6.025c0.643,4.807,1.286,9.604,1.813,13.668
		c-2.264-0.5-4.552-1.589-6.728-1.387c-12.226,1.209-24.458,2.656-36.648,4.225C427.347,216.689,425.679,217.991,423.677,218.93z"/>
	<path fill="#036EB8" d="M288.271,28.32c3.867,0.753,7.43,1.454,10.035,1.958c-1.173,1.726-3.257,3.522-3.731,5.672
		c-2.663,11.825-5.061,23.714-7.201,35.644c-0.397,2.239,0.802,4.771,1.23,6.957c-3.803-0.759-8.678-1.729-12.021-2.399
		c1.366-1.67,4.266-3.648,4.863-6.174c2.759-11.637,4.954-23.413,7.173-35.165C288.984,32.85,288.424,30.726,288.271,28.32z"/>
	<path fill="#036EB8" d="M368.459,85.461c3.165,2.043,6.188,4.366,9.528,6.033c2.542,1.268,5.492,1.691,8.068,2.439
		c-0.915,1.19-2.502,3.237-3.551,4.599c-4.782-4.534-9.348-8.856-13.909-13.188C368.584,85.349,368.459,85.461,368.459,85.461z"/>
	<path fill="#036EB8" d="M249.7,140.16c4.462,0,7.558,0.08,10.643-0.003c28.993-0.782,57.99-1.629,86.998-2.326
		c2.787-0.065,5.833,0.214,8.319,1.315c2.189,0.953,5.312,3.328,5.259,4.986c-0.076,2.285-2.302,5.212-4.439,6.511
		c-2.241,1.359-5.432,1.44-8.224,1.514c-17.359,0.437-34.737,0.304-52.071,1.176c-12.46,0.628-24.856,2.559-37.284,3.837
		c-3.763,0.385-5.283,2.234-4.744,5.993c0.86,6.098,0.495,12.621,2.607,18.248c4.326,11.571,3.036,22.813,0.903,34.41
		c-4.324,23.603-8.711,47.214-12.218,70.94c-4.273,28.987-2.901,57.857,4.173,86.408c1.083,4.342,1.808,8.901,1.731,13.337
		c-0.049,2.593-1.597,6.964-3.197,7.328c-2.94,0.647-7.791,0.013-9.374-2.014c-3.8-4.867-7.544-10.56-8.837-16.461
		c-3.423-15.597-5.524-31.482-8.165-47.249c-0.099-0.654-0.191-1.323-0.335-1.979c-2.362-10.152-4.004-11.125-14.527-10.063
		c-23.207,2.335-46.417,4.684-69.659,6.55c-6.575,0.533-13.336-0.245-19.9-1.165c-2.098-0.297-5.147-2.757-5.458-4.607
		c-0.317-1.961,1.594-5.021,3.424-6.467c6.518-5.16,14.552-6.26,22.519-7.386c23.524-3.345,47.175-4.078,70.907-3.87
		c13.213,0.117,11.493,0.364,14.091-11.571c5.549-25.571,11.03-51.146,16.505-76.729c0.281-1.236,0.261-2.54,0.451-4.861
		c-1.812,1.229-2.94,1.784-3.808,2.615c-8.64,8.352-17.365,16.627-25.745,25.245c-1.745,1.792-2.679,4.829-3.032,7.417
		c-0.931,7.098-1.224,14.281-2.041,21.397c-0.91,8.024-5.341,13.954-12.856,16.432c-8.01,2.644-16.351,5.111-24.685,5.725
		c-10.389,0.771-21.196,0.95-31.321-1.123c-14.891-3.058-22.95-14.669-26.253-28.659c-4.624-19.692-3.94-39.743-0.366-59.6
		c1.477-8.168,6.314-14.378,13.882-17.95c14.513-6.842,29.609-11.17,45.917-9.736c8.217,0.722,15.542,3.813,22.135,8.503
		c1.89,1.344,3.328,3.792,4.149,6.035c2.461,6.731,4.661,13.573,6.67,20.447c1.17,3.991,3.473,5.125,6.451,2.506
		c9.398-8.224,19.361-16.034,27.402-25.459c4.146-4.862,1.861-12.697-0.141-19.994c-2.02,1.099-3.586,1.855-5.045,2.77
		c-4.664,2.92-9.06,6.42-14.038,8.647c-2.615,1.177-6.473,0.948-9.282-0.05c-3.422-1.205-4.131-4.31-1.127-7.119
		c15.176-14.218,24.352-32.458,33.923-50.443c1.572-2.939,3.268-5.829,5.059-8.633c2.336-3.644,5.979-5.158,9.96-3.993
		c3.911,1.146,4.972,4.926,4.514,8.556c-0.443,3.584-1.533,7.146-2.749,10.574C255.188,126.31,252.666,132.459,249.7,140.16z
		 M134.064,220.834c5.979-0.372,11.997-0.554,17.954-1.138c8.112-0.796,16.234-1.648,24.283-2.947
		c5.478-0.892,8.615-4.714,8.161-9.12c-0.3-2.805-0.888-5.595-1.604-8.322c-1.661-6.213-5.605-10.112-12.039-11.229
		c-11.669-2.03-22.922,0.119-33.856,4.054c-9.585,3.448-12.691,8.211-12.994,18.474C123.693,219.88,124.851,221.042,134.064,220.834
		z M154.275,265.222c4.646-0.43,9.303-0.727,13.928-1.335c7.784-1.041,13.375-4.957,15.667-12.765
		c0.892-3.025,1.784-6.084,2.285-9.183c1.014-6.347-1.094-9.096-7.439-8.609c-14.115,1.081-28.233,2.385-42.282,4.09
		c-9.616,1.171-12.556,8.631-7.412,16.838C135.006,263.787,143.953,265.821,154.275,265.222z"/>
	<path fill="#036EB8" d="M319.372,269.007c11.474-0.288,11.474-0.288,11.604,11.05c0.068,5.562,2.392,7.269,8.01,6.295
		c8.193-1.412,13.895-5.267,15.313-14.072c0.741-4.684,3.744-6.796,8.523-6.55c4.869,0.249,6.401,3.705,6.255,7.528
		c-0.465,11.808-0.771,23.685-2.354,35.37c-1.096,8.063-6.632,13.729-14.629,16.273c-4.768,1.504-9.638,2.625-14.456,3.974
		c-9.426,2.625-9.916,3.77-5.746,12.838c2.427,5.301,5.16,10.505,7.113,15.975c0.987,2.77,0.549,6.055,0.759,9.097
		c-3.213-0.07-6.591,0.461-9.619-0.331c-5.904-1.545-10.361-5.218-12.696-11.099c-1.914-4.814-3.854-9.609-5.832-14.383
		c-2.234-5.357-4.61-6.804-10.182-5.027c-6.326,2.024-12.404,4.816-18.661,7.119c-4.675,1.727-9.442,3.225-14.173,4.802
		c-0.635,0.215-1.387,0.598-1.931,0.426c-3.213-1.017-7.883-1.285-9.204-3.511c-2.128-3.575,2.202-5.957,4.987-7.284
		c8.559-4.081,17.347-7.698,26.091-11.367c4.466-1.87,9.071-3.374,13.536-5.225c3.276-1.351,5.078-3.809,4.331-7.521
		c-0.777-3.921-3.788-4.499-6.938-3.942c-9.34,1.641-18.626,3.571-27.944,5.295c-3.923,0.717-7.864,1.467-11.83,1.686
		c-4.252,0.234-5.4-1.691-3.528-5.597c2.415-5.056,6.908-7.672,12.061-8.975c9.695-2.462,19.481-4.57,29.21-6.89
		c2.098-0.49,4.734-0.629,6.06-1.981c1.656-1.664,2.211-4.421,3.244-6.705c-2.08-0.931-4.136-2.608-6.223-2.638
		c-5.762-0.063-11.557,0.903-17.303,0.707c-2.056-0.072-4.046-2.307-6.061-3.548c1.658-1.903,3.019-5.01,5.016-5.5
		c10.137-2.474,20.427-4.338,30.69-6.249C314.973,268.67,317.204,269.007,319.372,269.007z M334.485,314.844
		c3.253-1.237,8.231-2.257,12.032-4.934c2.086-1.469,2.672-5.686,2.976-8.755c0.131-1.245-2.066-3.543-3.6-3.984
		c-4.757-1.363-15.779,4.543-17.779,9.063C326.213,310.543,328.679,314.836,334.485,314.844z"/>
	<path fill="#036EB8" d="M314.924,205.72c-8.037-0.464-16.785-0.326-25.297-1.672c-5.373-0.842-10.852-3.193-15.488-6.13
		c-6.51-4.123-7.654-11.094-6.225-18.249c1.393-6.879,5.566-12.022,12.435-13.679c6.75-1.627,13.791-2.987,20.687-2.954
		c15.799,0.081,31.635,0.703,47.396,1.834c12.005,0.869,17.834,7.253,18.04,17.931c0.241,12.099-5.153,18.684-16.997,20.736
		c-1.31,0.228-2.625,0.57-3.936,0.648C335.546,204.709,325.549,205.189,314.924,205.72z M316.447,176.112
		c-8.177,0.369-16.004,0.669-23.841,1.077c-5.764,0.301-8.437,2.369-8.554,6.406c-0.115,4.206,2.737,7.72,7.976,7.939
		c14.48,0.623,28.986,0.837,43.49,0.908c3.614,0.019,7.397-0.645,10.766-1.894c1.933-0.721,4.488-3.324,4.416-4.961
		c-0.125-2.365-1.962-5.087-3.873-6.761c-1.416-1.246-4.063-1.344-6.208-1.481C332.463,176.827,324.302,176.499,316.447,176.112z"/>
	<path fill="#036EB8" d="M318.012,216.785c10.152,0.649,20.33,0.991,30.435,2.028c11.978,1.23,18.721,8.595,18.934,19.8
		c0.221,11.491-5.094,17.751-17.657,19.522c-20.737,2.919-41.624,2.476-62.429,0.938c-10.904-0.803-19.104-9.141-19.755-18.63
		c-0.806-11.672,5.811-19.824,17.54-21.567c2.141-0.319,4.274-0.868,6.43-0.891c8.839-0.1,17.676-0.042,26.511-0.042
		C318.009,217.56,318.009,217.167,318.012,216.785z M314.106,248.291c10.113-0.816,19.727-1.54,29.319-2.399
		c4.174-0.376,7.493-2.16,7.876-6.85c0.396-5.045-2.954-6.991-7.242-7.938c-1.29-0.286-2.588-0.707-3.893-0.782
		c-10.792-0.618-21.569-1.438-32.367-1.622c-5.602-0.082-11.243,0.904-16.852,1.578c-4.492,0.547-7.541,2.885-7.438,7.758
		c0.096,4.573,2.44,7.524,7.232,8.014C298.662,246.848,306.597,247.575,314.106,248.291z"/>
</g>
</svg>
